<?xml version="1.0" encoding="UTF-8" standalone="no"?>
<svg
   xmlns:dc="http://purl.org/dc/elements/1.1/"
   xmlns:cc="http://creativecommons.org/ns#"
   xmlns:rdf="http://www.w3.org/1999/02/22-rdf-syntax-ns#"
   xmlns:svg="http://www.w3.org/2000/svg"
   xmlns="http://www.w3.org/2000/svg"
   xmlns:sodipodi="http://sodipodi.sourceforge.net/DTD/sodipodi-0.dtd"
   xmlns:inkscape="http://www.inkscape.org/namespaces/inkscape"
   width="37.161854mm"
   height="35.271278mm"
   viewBox="0 0 37.161854 35.271278"
   version="1.1"
   id="svg8"
   inkscape:version="1.0.1 (3bc2e813f5, 2020-09-07)"
   sodipodi:docname="ba-rs-logo.svg"
   inkscape:export-filename="/home/ed/Code/bardata/img/ba-rs-logo.png"
   inkscape:export-xdpi="75"
   inkscape:export-ydpi="75">
  <defs
     id="defs2" />
  <sodipodi:namedview
     id="base"
     pagecolor="#ffffff"
     bordercolor="#666666"
     borderopacity="1.0"
     inkscape:pageopacity="0.0"
     inkscape:pageshadow="2"
     inkscape:zoom="3.959798"
     inkscape:cx="93.336173"
     inkscape:cy="45.227425"
     inkscape:document-units="mm"
     inkscape:current-layer="layer1"
     inkscape:document-rotation="0"
     showgrid="false"
     inkscape:window-width="1890"
     inkscape:window-height="1030"
     inkscape:window-x="14"
     inkscape:window-y="34"
     inkscape:window-maximized="1">
    <inkscape:grid
       type="xygrid"
       id="grid940" />
  </sodipodi:namedview>
  <metadata
     id="metadata5">
    <rdf:RDF>
      <cc:Work
         rdf:about="">
        <dc:format>image/svg+xml</dc:format>
        <dc:type
           rdf:resource="http://purl.org/dc/dcmitype/StillImage" />
        <dc:title></dc:title>
      </cc:Work>
    </rdf:RDF>
  </metadata>
  <g
     inkscape:label="Layer 1"
     inkscape:groupmode="layer"
     id="layer1"
     transform="translate(-1.3829035,-1.12418)">
    <path
       id="path833"
       style="fill:#4d4d4d;stroke-width:4.7811;stroke-linecap:round;stroke-linejoin:round;paint-order:stroke fill markers"
       d="M 68.851562 0 A 46.446535 66.654384 0 0 0 45.150391 9.3320312 A 18.355608 45.33443 32.903605 0 0 13.369141 38.574219 A 18.355608 45.33443 32.903605 0 0 4.5957031 86.292969 A 18.355608 45.33443 32.903605 0 0 23.550781 81.355469 A 46.446535 66.654384 0 0 0 68.851562 133.30859 A 46.446535 66.654384 0 0 0 114.54297 78.628906 A 46.245747 19.478719 52.661817 0 0 135.38477 83.435547 A 46.245747 19.478719 52.661817 0 0 125.71094 36.597656 A 46.245747 19.478719 52.661817 0 0 90.833984 7.9375 A 46.446535 66.654384 0 0 0 68.851562 0 z M 86.386719 48.787109 A 6.8777896 7.5247242 0 0 1 86.388672 48.787109 A 6.8777896 7.5247242 0 0 1 86.421875 48.787109 A 6.8777896 7.5247242 0 0 1 86.759766 48.796875 A 6.8777896 7.5247242 0 0 1 86.851562 48.802734 A 6.8777896 7.5247242 0 0 1 86.974609 48.8125 A 6.8777896 7.5247242 0 0 1 86.992188 48.814453 A 6.8777896 7.5247242 0 0 1 87.140625 48.830078 A 6.8777896 7.5247242 0 0 1 87.189453 48.833984 A 6.8777896 7.5247242 0 0 1 87.220703 48.837891 A 6.8777896 7.5247242 0 0 1 87.402344 48.865234 A 6.8777896 7.5247242 0 0 1 87.615234 48.902344 A 6.8777896 7.5247242 0 0 1 87.826172 48.947266 A 6.8777896 7.5247242 0 0 1 88.037109 48.998047 A 6.8777896 7.5247242 0 0 1 88.220703 49.048828 A 6.8777896 7.5247242 0 0 1 88.246094 49.056641 A 6.8777896 7.5247242 0 0 1 88.267578 49.064453 A 6.8777896 7.5247242 0 0 1 88.402344 49.107422 A 6.8777896 7.5247242 0 0 1 88.453125 49.123047 A 6.8777896 7.5247242 0 0 1 88.541016 49.154297 A 6.8777896 7.5247242 0 0 1 88.65625 49.197266 A 6.8777896 7.5247242 0 0 1 88.667969 49.203125 A 6.8777896 7.5247242 0 0 1 88.859375 49.277344 A 6.8777896 7.5247242 0 0 1 89.03125 49.351562 A 6.8777896 7.5247242 0 0 1 89.060547 49.363281 A 6.8777896 7.5247242 0 0 1 89.144531 49.402344 A 6.8777896 7.5247242 0 0 1 89.257812 49.457031 A 6.8777896 7.5247242 0 0 1 89.341797 49.5 A 6.8777896 7.5247242 0 0 1 89.453125 49.558594 A 6.8777896 7.5247242 0 0 1 89.535156 49.603516 A 6.8777896 7.5247242 0 0 1 89.644531 49.666016 A 6.8777896 7.5247242 0 0 1 89.832031 49.779297 A 6.8777896 7.5247242 0 0 1 90.017578 49.898438 A 6.8777896 7.5247242 0 0 1 90.199219 50.025391 A 6.8777896 7.5247242 0 0 1 90.277344 50.082031 A 6.8777896 7.5247242 0 0 1 90.378906 50.158203 A 6.8777896 7.5247242 0 0 1 90.453125 50.216797 A 6.8777896 7.5247242 0 0 1 90.552734 50.296875 A 6.8777896 7.5247242 0 0 1 90.564453 50.306641 A 6.8777896 7.5247242 0 0 1 90.722656 50.441406 A 6.8777896 7.5247242 0 0 1 90.888672 50.591797 A 6.8777896 7.5247242 0 0 1 91.050781 50.748047 A 6.8777896 7.5247242 0 0 1 91.207031 50.908203 A 6.8777896 7.5247242 0 0 1 91.324219 51.037109 A 6.8777896 7.5247242 0 0 1 91.359375 51.074219 A 6.8777896 7.5247242 0 0 1 91.423828 51.148438 A 6.8777896 7.5247242 0 0 1 91.433594 51.160156 A 6.8777896 7.5247242 0 0 1 91.5625 51.314453 A 6.8777896 7.5247242 0 0 1 91.568359 51.322266 A 6.8777896 7.5247242 0 0 1 91.648438 51.423828 A 6.8777896 7.5247242 0 0 1 91.769531 51.582031 A 6.8777896 7.5247242 0 0 1 91.787109 51.605469 A 6.8777896 7.5247242 0 0 1 91.84375 51.683594 A 6.8777896 7.5247242 0 0 1 91.917969 51.791016 A 6.8777896 7.5247242 0 0 1 92.044922 51.982422 A 6.8777896 7.5247242 0 0 1 92.097656 52.064453 A 6.8777896 7.5247242 0 0 1 92.166016 52.175781 A 6.8777896 7.5247242 0 0 1 92.216797 52.261719 A 6.8777896 7.5247242 0 0 1 92.222656 52.273438 A 6.8777896 7.5247242 0 0 1 92.318359 52.441406 A 6.8777896 7.5247242 0 0 1 92.330078 52.460938 A 6.8777896 7.5247242 0 0 1 92.392578 52.578125 A 6.8777896 7.5247242 0 0 1 92.4375 52.666016 A 6.8777896 7.5247242 0 0 1 92.496094 52.785156 A 6.8777896 7.5247242 0 0 1 92.5 52.791016 A 6.8777896 7.5247242 0 0 1 92.587891 52.980469 A 6.8777896 7.5247242 0 0 1 92.59375 52.994141 A 6.8777896 7.5247242 0 0 1 92.599609 53.007812 A 6.8777896 7.5247242 0 0 1 92.685547 53.207031 A 6.8777896 7.5247242 0 0 1 92.771484 53.423828 A 6.8777896 7.5247242 0 0 1 92.806641 53.517578 A 6.8777896 7.5247242 0 0 1 92.822266 53.564453 A 6.8777896 7.5247242 0 0 1 92.871094 53.701172 A 6.8777896 7.5247242 0 0 1 92.882812 53.736328 A 6.8777896 7.5247242 0 0 1 92.923828 53.865234 A 6.8777896 7.5247242 0 0 1 92.976562 54.039062 A 6.8777896 7.5247242 0 0 1 93.017578 54.185547 A 6.8777896 7.5247242 0 0 1 93.068359 54.378906 A 6.8777896 7.5247242 0 0 1 93.076172 54.412109 A 6.8777896 7.5247242 0 0 1 93.105469 54.542969 A 6.8777896 7.5247242 0 0 1 93.107422 54.554688 A 6.8777896 7.5247242 0 0 1 93.152344 54.773438 A 6.8777896 7.5247242 0 0 1 93.191406 54.988281 A 6.8777896 7.5247242 0 0 1 93.193359 55.003906 A 6.8777896 7.5247242 0 0 1 93.208984 55.103516 A 6.8777896 7.5247242 0 0 1 93.212891 55.136719 A 6.8777896 7.5247242 0 0 1 93.240234 55.330078 A 6.8777896 7.5247242 0 0 1 93.240234 55.335938 A 6.8777896 7.5247242 0 0 1 93.255859 55.470703 A 6.8777896 7.5247242 0 0 1 93.265625 55.570312 A 6.8777896 7.5247242 0 0 1 93.267578 55.609375 A 6.8777896 7.5247242 0 0 1 93.283203 55.800781 A 6.8777896 7.5247242 0 0 1 93.283203 55.804688 A 6.8777896 7.5247242 0 0 1 93.283203 55.810547 A 6.8777896 7.5247242 0 0 1 93.292969 55.984375 A 6.8777896 7.5247242 0 0 1 93.296875 56.175781 A 6.8777896 7.5247242 0 0 1 93.298828 56.277344 A 6.8777896 7.5247242 0 0 1 93.298828 56.3125 A 6.8777896 7.5247242 0 0 1 93.134766 57.949219 A 6.8777896 7.5247242 0 0 1 93.117188 58.03125 A 6.8777896 7.5247242 0 0 1 86.421875 63.837891 A 6.8777896 7.5247242 0 0 1 79.542969 56.3125 A 6.8777896 7.5247242 0 0 1 86.386719 48.787109 z "
       transform="matrix(0.26458333,0,0,0.26458333,1.3829035,1.12418)" />
    <ellipse
       style="fill:#ffffff;stroke-width:1.265;stroke-linecap:round;stroke-linejoin:round;paint-order:stroke fill markers"
       id="path852"
       cx="14.566552"
       cy="16.427986"
       rx="3.2029986"
       ry="3.2018421" />
  </g>
</svg>
